<svg width="513" height="343" fill="none" xmlns="http://www.w3.org/2000/svg"><g clip-path="url(#a)"><path d="M0 .927h513V342.93H0V.927Z" fill="#fff"/><path d="M288.562.924h-64.124V139.86H0v64.125h224.438v138.937h64.124V203.985H513V139.86H288.562V.924Z" fill="#D80027"/><path d="M394.554 231.401 513 297.205v-65.804H394.554Zm-82.293 0L513 342.922v-31.535l-143.974-79.986h-56.765ZM459.53 342.922l-147.269-81.823v81.823H459.53Z" fill="#0052B4"/><path d="M312.261 231.401 513 342.922v-31.535l-143.974-79.986h-56.765Z" fill="#fff"/><path d="M312.261 231.401 513 342.922v-31.535l-143.974-79.986h-56.765Z" fill="#D80027"/><path d="M90.517 231.399 0 281.687v-50.288h90.517ZM200.74 245.58v97.341H25.541l175.198-97.341Z" fill="#0052B4"/><path d="M143.974 231.401 0 311.387v31.535l200.739-111.521h-56.765Z" fill="#D80027"/><path d="M118.446 112.445 0 46.641v65.804h118.446Zm82.293 0L0 .924v31.535l143.974 79.986h56.765ZM53.47.924 200.74 82.747V.924H53.47Z" fill="#0052B4"/><path d="M200.739 112.445 0 .924v31.535l143.974 79.986h56.765Z" fill="#fff"/><path d="M200.739 112.445 0 .924v31.535l143.974 79.986h56.765Z" fill="#D80027"/><path d="M422.483 112.447 513 62.159v50.288h-90.517ZM312.261 98.265V.925h175.198l-175.198 97.34Z" fill="#0052B4"/><path d="M369.026 112.445 513 32.459V.924L312.261 112.445h56.765Z" fill="#D80027"/></g><defs><clipPath id="a"><path fill="#fff" transform="translate(0 .927)" d="M0 0h513v342H0z"/></clipPath></defs></svg>